<svg xmlns="http://www.w3.org/2000/svg" width="124.197" height="124.32" viewBox="0 0 124.197 124.32"><defs><style>.a{fill:#333;stroke:rgba(0,0,0,0);stroke-miterlimit:10;}</style></defs><path class="a" d="M-1171.634,711.978a.2.2,0,0,1-.043-.055.039.039,0,0,1-.029-.014l-.338-.325-11.019-10.595s0,0,0-.011a.038.038,0,0,1-.021-.013.637.637,0,0,1,0-.922.7.7,0,0,1,.958,0,.044.044,0,0,1,.014.021c.007,0,.007,0,.011,0l11.356,10.921a.034.034,0,0,1,.014.027.161.161,0,0,1,.058.041.631.631,0,0,1,.191.527.632.632,0,0,1-.191.394.689.689,0,0,1-.479.19A.691.691,0,0,1-1171.634,711.978Zm71.81-.394-12.023-11.56s-.011-.01-.011-.017a.113.113,0,0,1-.032-.024.632.632,0,0,1,0-.918.7.7,0,0,1,.954,0,.1.1,0,0,1,.025.031.036.036,0,0,1,.018.011l12.981,12.482Zm-28.888,0-2.965-2.851a.036.036,0,0,1-.012-.018.116.116,0,0,1-.031-.024.633.633,0,0,1,0-.918.7.7,0,0,1,.955,0,.148.148,0,0,1,.025.031.034.034,0,0,1,.018.011l3.924,3.773Zm-14.444,0-1.323-1.272a.041.041,0,0,1-.011-.018.108.108,0,0,1-.032-.024.633.633,0,0,1,0-.918.7.7,0,0,1,.955,0,.109.109,0,0,1,.025.031c.007,0,.014.007.018.011l2.281,2.193Zm-14.444,0-19.357-18.614a.636.636,0,0,1,0-.922.7.7,0,0,1,.958,0l20.316,19.535Zm-43.331,0-2.578-2.479a.026.026,0,0,1-.011-.017.109.109,0,0,1-.032-.024.633.633,0,0,1,0-.918.7.7,0,0,1,.954,0,.118.118,0,0,1,.026.031c.007,0,.014.008.018.011l3.536,3.4Zm84.5-2.093s-.006.006-.011,0l-2.179-2.1s0,0,0-.006a.631.631,0,0,1,.028-.887.7.7,0,0,1,.922-.027s0,0,.007,0l2.18,2.1s0,.008,0,.011a.625.625,0,0,1-.043.866.685.685,0,0,1-.476.189A.68.68,0,0,1-1116.432,709.491Zm-30.893-1.929s-.007.007-.01,0l-2.181-2.1s0,0,0-.008a.631.631,0,0,1,.029-.887.694.694,0,0,1,.922-.028s0,0,.007,0l2.18,2.1s0,.006,0,.01a.626.626,0,0,1-.043.866.686.686,0,0,1-.476.19A.676.676,0,0,1-1147.325,707.562Zm-59.171-1.33-6.5-6.252v-1.842l7.462,7.175a.635.635,0,0,1,0,.92.688.688,0,0,1-.479.19A.688.688,0,0,1-1206.5,706.232Zm71.553-.639-26.907-25.872a.638.638,0,0,1,0-.922.7.7,0,0,1,.958,0l26.907,25.871a.638.638,0,0,1,0,.923.693.693,0,0,1-.48.189A.693.693,0,0,1-1134.944,705.593Zm43.217-.11-26.906-25.872a.637.637,0,0,1,0-.922.7.7,0,0,1,.958,0l26.907,25.872a.637.637,0,0,1,0,.922.691.691,0,0,1-.479.189A.694.694,0,0,1-1091.727,705.483ZM-1193.333,705-1213,686.092v-1.843l20.626,19.833a.635.635,0,0,1,0,.921.689.689,0,0,1-.479.19A.692.692,0,0,1-1193.333,705Zm40.536-2.687a.189.189,0,0,1-.043-.055.044.044,0,0,1-.029-.014l-11.356-10.92s0,0,0-.01a.046.046,0,0,1-.022-.014.637.637,0,0,1,0-.922.7.7,0,0,1,.958,0,.044.044,0,0,1,.014.021c.007,0,.007,0,.011,0l11.356,10.919a.034.034,0,0,1,.015.029.164.164,0,0,1,.057.04.637.637,0,0,1,0,.922.69.69,0,0,1-.479.19A.689.689,0,0,1-1152.8,702.315Zm26.825-1.983-4.946-4.757a.634.634,0,0,1,0-.918.7.7,0,0,1,.955,0l4.946,4.757a.635.635,0,0,1,0,.921.689.689,0,0,1-.479.19A.692.692,0,0,1-1125.971,700.332Zm10.422-3.867-26.907-25.872a.639.639,0,0,1,0-.922.7.7,0,0,1,.958,0l26.907,25.873a.636.636,0,0,1,0,.921.689.689,0,0,1-.479.19A.691.691,0,0,1-1115.549,696.465Zm-74.238-1.942-4.946-4.757a.635.635,0,0,1,0-.918.7.7,0,0,1,.955,0l4.947,4.756a.637.637,0,0,1,0,.922.689.689,0,0,1-.479.19A.69.69,0,0,1-1189.787,694.523Zm97.046-3.905s-.011-.01-.011-.016a.147.147,0,0,1-.032-.024.633.633,0,0,1,0-.918.7.7,0,0,1,.954,0,.094.094,0,0,1,.026.031c.007,0,.013.007.017.011l1.98,1.9v1.842Zm-46.042-2.62s-.006.008-.011,0l-2.18-2.1s0,0,0-.006a.632.632,0,0,1,.029-.887.694.694,0,0,1,.922-.028s0,0,.007,0l2.18,2.1s0,.006,0,.01a.628.628,0,0,1-.044.867.683.683,0,0,1-.474.189A.679.679,0,0,1-1138.784,688Zm-29.041-.133-26.907-25.872a.636.636,0,0,1,0-.922.7.7,0,0,1,.958,0l26.906,25.871a.637.637,0,0,1,0,.922.688.688,0,0,1-.478.189A.691.691,0,0,1-1167.825,687.865Zm-16.058-1.552a.177.177,0,0,1-.043-.056.037.037,0,0,1-.029-.014l-11.356-10.92s0,0,0-.01a.046.046,0,0,1-.022-.014.638.638,0,0,1,0-.922.7.7,0,0,1,.958,0,.042.042,0,0,1,.014.021c.007,0,.007,0,.011,0l11.357,10.92a.034.034,0,0,1,.014.028.174.174,0,0,1,.058.04.638.638,0,0,1,0,.922.691.691,0,0,1-.479.189A.691.691,0,0,1-1183.883,686.313Zm85.458-1.173s-.007.007-.01,0l-2.181-2.1s0,0,0-.006a.631.631,0,0,1,.029-.887.694.694,0,0,1,.922-.028s0,0,.007,0l2.18,2.1s0,.006,0,.01a.625.625,0,0,1-.044.866.684.684,0,0,1-.476.19A.676.676,0,0,1-1098.425,685.14Zm-47.3-3.807a.168.168,0,0,1-.043-.056.038.038,0,0,1-.029-.013l-11.357-10.92s0,0,0-.011a.045.045,0,0,1-.022-.013.637.637,0,0,1,0-.922.7.7,0,0,1,.958,0,.051.051,0,0,1,.015.023.014.014,0,0,1,.011,0l11.356,10.921a.034.034,0,0,1,.014.027.18.18,0,0,1,.058.041.637.637,0,0,1,0,.922.688.688,0,0,1-.479.19A.688.688,0,0,1-1145.73,681.333Zm-58.829-1.028s-.008.007-.011,0l-2.181-2.1s0,0,0-.007a.631.631,0,0,1,.03-.887.693.693,0,0,1,.922-.027s0,0,.007,0l2.181,2.1s0,.007,0,.011a.625.625,0,0,1-.043.866.683.683,0,0,1-.475.189A.677.677,0,0,1-1204.559,680.306Zm99.947-1.1-4.947-4.756a.635.635,0,0,1,0-.918.7.7,0,0,1,.955,0l4.946,4.756a.636.636,0,0,1,0,.921.69.69,0,0,1-.479.19A.685.685,0,0,1-1104.612,679.2Zm13.194-1.214s-.006.007-.011,0l-2.18-2.1s0,0,0-.007a.631.631,0,0,1,.029-.886.693.693,0,0,1,.922-.028s0,0,.008,0l2.18,2.1s0,.006,0,.01a.626.626,0,0,1-.043.866.685.685,0,0,1-.476.189A.678.678,0,0,1-1091.418,677.989Zm-76.233-3.846-4.946-4.757a.633.633,0,0,1,0-.917.7.7,0,0,1,.955,0l4.946,4.757a.636.636,0,0,1,0,.921.689.689,0,0,1-.48.19A.689.689,0,0,1-1167.651,674.143Zm71.587-.607-26.906-25.872a.636.636,0,0,1,0-.922.7.7,0,0,1,.958,0l26.906,25.873a.636.636,0,0,1,0,.921.69.69,0,0,1-.479.19A.689.689,0,0,1-1096.064,673.536Zm-29.436-.541s-.007.007-.01,0l-2.181-2.1s0,0,0-.007a.631.631,0,0,1,.03-.887.7.7,0,0,1,.923-.027s0,0,.006,0l2.18,2.1s0,.006,0,.011a.627.627,0,0,1-.043.866.686.686,0,0,1-.475.189A.682.682,0,0,1-1125.5,672.995Zm-73.984-1.683-4.946-4.757a.635.635,0,0,1,0-.918.7.7,0,0,1,.955,0l4.946,4.756a.635.635,0,0,1,0,.921.688.688,0,0,1-.479.19A.691.691,0,0,1-1199.484,671.312Zm83.23-3.314s-.007.006-.011,0l-2.18-2.1s0,0,0-.006a.632.632,0,0,1,.029-.887.7.7,0,0,1,.922-.027s0,0,.007,0l2.18,2.1s0,.006,0,.01a.625.625,0,0,1-.043.866.685.685,0,0,1-.476.189A.68.68,0,0,1-1116.254,668Zm-16.262-1.735a.156.156,0,0,1-.043-.056.036.036,0,0,1-.028-.013l-11.357-10.92s0,0,0-.01a.045.045,0,0,1-.021-.014.635.635,0,0,1,0-.921.7.7,0,0,1,.958,0,.034.034,0,0,1,.014.021c.007,0,.007,0,.011,0l11.357,10.92a.039.039,0,0,1,.014.028.17.17,0,0,1,.058.041.637.637,0,0,1,0,.922.689.689,0,0,1-.479.19A.691.691,0,0,1-1132.516,666.263Zm-14.6-.148-4.947-4.756a.637.637,0,0,1,0-.919.7.7,0,0,1,.955,0l4.947,4.756a.637.637,0,0,1,0,.922.692.692,0,0,1-.48.19A.687.687,0,0,1-1147.113,666.114Zm42.245-14.933a.041.041,0,0,1-.012-.017.124.124,0,0,1-.031-.025.633.633,0,0,1,0-.918.7.7,0,0,1,.955,0,.107.107,0,0,1,.025.031c.007,0,.013.006.018.01l14.106,13.565v1.841Zm-72.706,13.407s-.007.007-.011,0l-2.18-2.1s0,0,0-.006a.632.632,0,0,1,.029-.887.693.693,0,0,1,.922-.026s0,0,.006,0l2.181,2.1s0,.007,0,.011a.626.626,0,0,1-.043.866.688.688,0,0,1-.476.188A.678.678,0,0,1-1177.573,664.589Zm14.407-.034s-.006.006-.01,0l-2.18-2.1s0,0,0-.006a.631.631,0,0,1,.029-.886.693.693,0,0,1,.922-.028s0,0,.008,0l2.18,2.1s0,.006,0,.011a.624.624,0,0,1-.044.865.685.685,0,0,1-.476.189A.681.681,0,0,1-1163.166,664.555Zm-45.169-1.768s-.007.006-.011,0l-2.18-2.1s0,0,0-.006a.631.631,0,0,1,.03-.887.693.693,0,0,1,.922-.027s0,0,.007,0l2.18,2.1s0,.007,0,.011a.626.626,0,0,1-.043.866.686.686,0,0,1-.476.189A.679.679,0,0,1-1208.336,662.786Zm85.992-.631a.09.09,0,0,1-.021-.027.026.026,0,0,1-.018-.011l-15.2-14.62a.028.028,0,0,1-.011-.018.1.1,0,0,1-.032-.023.633.633,0,0,1,0-.919.7.7,0,0,1,.954,0,.139.139,0,0,1,.025.031.036.036,0,0,1,.018.011l15.205,14.62a.037.037,0,0,1,.011.016.1.1,0,0,1,.029.022.64.64,0,0,1,0,.924.688.688,0,0,1-.478.188A.7.7,0,0,1-1122.343,662.155ZM-1213,658.279v-1.807l.815.784a.636.636,0,0,1,0,.922.683.683,0,0,1-.475.188A.708.708,0,0,1-1213,658.279Zm27.694-1.112a.068.068,0,0,1-.022-.027c-.007,0-.014-.008-.019-.011l-15.2-14.62a.045.045,0,0,1-.011-.018.14.14,0,0,1-.032-.023.634.634,0,0,1,0-.919.7.7,0,0,1,.954,0,.109.109,0,0,1,.025.031c.007,0,.014.007.018.011l15.2,14.62s.011.01.011.017a.077.077,0,0,1,.03.022.639.639,0,0,1,0,.923.685.685,0,0,1-.478.188A.7.7,0,0,1-1185.306,657.167Zm-14.49-.044a.16.16,0,0,1-.043-.054.042.042,0,0,1-.029-.014l-11.357-10.92s0,0,0-.011a.052.052,0,0,1-.022-.014.638.638,0,0,1,0-.922.7.7,0,0,1,.958,0,.044.044,0,0,1,.014.021c.007,0,.007,0,.011,0l11.356,10.92a.035.035,0,0,1,.014.028.168.168,0,0,1,.058.04.636.636,0,0,1,0,.922.689.689,0,0,1-.479.19A.689.689,0,0,1-1199.8,657.122Zm42.3-.991a.163.163,0,0,1-.043-.055.035.035,0,0,1-.029-.014l-11.357-10.919a.012.012,0,0,1,0-.011.046.046,0,0,1-.022-.014.636.636,0,0,1,0-.922.7.7,0,0,1,.958,0,.041.041,0,0,1,.014.022c.007,0,.007,0,.012,0l11.356,10.921a.035.035,0,0,1,.014.027.159.159,0,0,1,.057.042.636.636,0,0,1,0,.921.69.69,0,0,1-.479.19A.688.688,0,0,1-1157.5,656.132Zm-15.274-.8-26.907-25.871a.639.639,0,0,1,0-.922.7.7,0,0,1,.958,0l26.907,25.873a.636.636,0,0,1,0,.921.688.688,0,0,1-.479.19A.688.688,0,0,1-1172.769,655.333Zm79.6-6.789a.636.636,0,0,1,0-.918.7.7,0,0,1,.955,0l2.4,2.312v1.843Zm-54.842,2.807s-.007.007-.011,0l-2.18-2.1s0,0,0-.006a.631.631,0,0,1,.029-.887.7.7,0,0,1,.922-.027s0,0,.007,0l2.18,2.1s0,.007,0,.011a.626.626,0,0,1-.043.866.684.684,0,0,1-.475.189A.678.678,0,0,1-1148.009,651.352Zm39.164-3.993-4.946-4.757a.634.634,0,0,1,0-.918.7.7,0,0,1,.955,0l4.946,4.756a.636.636,0,0,1,0,.921.689.689,0,0,1-.48.19A.691.691,0,0,1-1108.845,647.358Zm-45.138-1.736a.185.185,0,0,1-.043-.056.037.037,0,0,1-.029-.014l-11.357-10.92s0,0,0-.011a.048.048,0,0,1-.022-.013.636.636,0,0,1,0-.922.7.7,0,0,1,.958,0,.047.047,0,0,1,.014.022c.006,0,.006,0,.011,0l11.356,10.92a.037.037,0,0,1,.014.028.181.181,0,0,1,.058.04.638.638,0,0,1,0,.923.691.691,0,0,1-.479.189A.691.691,0,0,1-1153.983,645.622Zm57.677-.11s-.007.007-.011,0l-2.181-2.1s0,0,0-.006a.632.632,0,0,1,.029-.887.7.7,0,0,1,.922-.027s0,0,.007,0l2.181,2.1s0,.007,0,.01a.625.625,0,0,1-.043.867.684.684,0,0,1-.475.189A.676.676,0,0,1-1096.305,645.512Zm-30.2-1.246a.073.073,0,0,1-.022-.028.038.038,0,0,1-.019-.01l-15.2-14.62a.033.033,0,0,1-.012-.018.1.1,0,0,1-.031-.024.632.632,0,0,1,0-.918.7.7,0,0,1,.954,0,.12.12,0,0,1,.024.031.039.039,0,0,1,.019.011l15.2,14.62s.011.01.011.016a.1.1,0,0,1,.029.022.641.641,0,0,1,0,.924.686.686,0,0,1-.477.188A.7.7,0,0,1-1126.5,644.267Zm-15.276-.8-26.906-25.872a.637.637,0,0,1,0-.922.7.7,0,0,1,.958,0l26.907,25.872a.636.636,0,0,1,0,.922.687.687,0,0,1-.479.19A.692.692,0,0,1-1141.779,643.468Zm-31.374-2.406s-.007.008-.011,0l-2.18-2.1s0,0,0-.007a.63.63,0,0,1,.029-.887.694.694,0,0,1,.922-.028s0,0,.007,0l2.18,2.1s0,.006,0,.01a.626.626,0,0,1-.043.866.686.686,0,0,1-.476.189A.677.677,0,0,1-1173.153,641.062Zm71.426-.747a.166.166,0,0,1-.042-.056.037.037,0,0,1-.03-.013l-11.356-10.92s0,0,0-.011a.044.044,0,0,1-.022-.013.637.637,0,0,1,0-.922.7.7,0,0,1,.958,0,.055.055,0,0,1,.014.02c.007,0,.007,0,.011,0l11.356,10.92a.034.034,0,0,1,.014.028.153.153,0,0,1,.058.041.636.636,0,0,1,0,.922.69.69,0,0,1-.479.19A.69.69,0,0,1-1101.727,640.315Zm-15.551-1.066a.094.094,0,0,1-.022-.028c-.008,0-.014-.007-.018-.01l-15.2-14.62s-.011-.009-.011-.017a.1.1,0,0,1-.032-.024.633.633,0,0,1,0-.918.7.7,0,0,1,.954,0,.092.092,0,0,1,.025.031c.008,0,.014.007.018.01l15.205,14.62a.032.032,0,0,1,.011.018.082.082,0,0,1,.029.02.641.641,0,0,1,0,.925.686.686,0,0,1-.477.188A.7.7,0,0,1-1117.278,639.249Zm-88.073-1.371s-.008.007-.012,0l-2.18-2.1s0,0,0-.006a.632.632,0,0,1,.029-.887.7.7,0,0,1,.922-.028s0,0,.007,0l2.18,2.1s0,.007,0,.011a.626.626,0,0,1-.043.866.686.686,0,0,1-.476.189A.674.674,0,0,1-1205.351,637.879Zm112.593-2.842s-.007.006-.011,0l-2.18-2.1s0,0,0-.007a.632.632,0,0,1,.029-.887.7.7,0,0,1,.922-.027s0,0,.007,0l2.18,2.1s0,.007,0,.011a.627.627,0,0,1-.042.866.688.688,0,0,1-.476.189A.681.681,0,0,1-1092.758,635.036Zm-87.72-1-4.947-4.756a.637.637,0,0,1,0-.919.7.7,0,0,1,.955,0l4.947,4.756a.637.637,0,0,1,0,.922.692.692,0,0,1-.48.19A.687.687,0,0,1-1180.479,634.032Zm-31.45-2.478s-.007.007-.01,0l-1.061-1.02V628.7l2.019,1.94s0,.007,0,.01a.627.627,0,0,1-.043.867.686.686,0,0,1-.476.19A.675.675,0,0,1-1211.929,631.554Zm40.924-2.3a.08.08,0,0,1-.022-.027c-.007,0-.013-.007-.017-.011l-15.2-14.62s-.012-.011-.012-.017a.127.127,0,0,1-.032-.025.633.633,0,0,1,0-.918.7.7,0,0,1,.955,0,.1.1,0,0,1,.025.031.031.031,0,0,1,.017.011l15.205,14.62a.031.031,0,0,1,.011.018.113.113,0,0,1,.029.02.641.641,0,0,1,0,.925.686.686,0,0,1-.477.188A.7.7,0,0,1-1171.005,629.253Zm69.23-2.888s-.007.006-.011,0l-2.18-2.1s0,0,0-.007a.63.63,0,0,1,.029-.887.694.694,0,0,1,.922-.027s0,0,.007,0l2.181,2.1s0,.007,0,.011a.625.625,0,0,1-.043.866.685.685,0,0,1-.475.189A.679.679,0,0,1-1101.776,626.365Zm-14.633-.182s-.006.008-.01,0l-2.181-2.1s0,0,0-.006a.632.632,0,0,1,.03-.887.694.694,0,0,1,.922-.027s0,0,.007,0l2.181,2.1s0,.007,0,.01a.626.626,0,0,1-.043.867.685.685,0,0,1-.475.189A.677.677,0,0,1-1116.409,626.183Zm-73.281-1.005a.165.165,0,0,1-.042-.056.04.04,0,0,1-.029-.013l-11.357-10.921s0,0,0-.01a.04.04,0,0,1-.022-.014.636.636,0,0,1,0-.921.7.7,0,0,1,.958,0,.04.04,0,0,1,.014.021c.008,0,.008,0,.011,0l11.357,10.921a.034.034,0,0,1,.014.028.166.166,0,0,1,.057.04.638.638,0,0,1,0,.922.689.689,0,0,1-.479.19A.692.692,0,0,1-1189.689,625.178Zm86.57-13.98a.026.026,0,0,1-.011-.017.129.129,0,0,1-.032-.024.632.632,0,0,1,0-.918.7.7,0,0,1,.954,0,.1.1,0,0,1,.025.031c.008,0,.014.007.019.01l12.357,11.882V624Zm-45.02,12.266-26.906-25.872a.637.637,0,0,1,0-.922.7.7,0,0,1,.958,0l26.908,25.872a.637.637,0,0,1,0,.922.69.69,0,0,1-.479.19A.692.692,0,0,1-1148.139,623.464Zm-57.983-.2a.175.175,0,0,1-.043-.056.035.035,0,0,1-.029-.013L-1213,616.65v-1.843l7.764,7.466a.033.033,0,0,1,.014.028.175.175,0,0,1,.058.041.637.637,0,0,1,0,.922.691.691,0,0,1-.479.19A.689.689,0,0,1-1206.122,623.264Zm84.409-2.167-4.947-4.757a.636.636,0,0,1,0-.918.7.7,0,0,1,.955,0l4.947,4.756a.637.637,0,0,1,0,.922.691.691,0,0,1-.48.19A.689.689,0,0,1-1121.712,621.1Zm-17.967-3.4s-.007.007-.01,0l-2.181-2.1s0,0,0-.006a.631.631,0,0,1,.029-.887.694.694,0,0,1,.922-.027s0,0,.007,0l2.18,2.1s0,.007,0,.011a.627.627,0,0,1-.043.867.685.685,0,0,1-.475.188A.678.678,0,0,1-1139.679,617.7Zm27.751-1.08a.079.079,0,0,1-.022-.027c-.007,0-.014-.007-.019-.011l-15.2-14.62a.03.03,0,0,1-.011-.018.1.1,0,0,1-.032-.023.634.634,0,0,1,0-.919.7.7,0,0,1,.955,0,.109.109,0,0,1,.024.031.03.03,0,0,1,.019.01l15.2,14.62s.012.011.012.017a.11.11,0,0,1,.029.021.641.641,0,0,1,0,.925.685.685,0,0,1-.477.188A.7.7,0,0,1-1111.928,616.616Zm-18.854-4.255s-.007.008-.011,0l-2.18-2.1s0,0,0-.005a.632.632,0,0,1,.028-.888.7.7,0,0,1,.922-.027s0,0,.007,0l2.181,2.1s0,.006,0,.01a.626.626,0,0,1-.043.867.684.684,0,0,1-.475.189A.674.674,0,0,1-1130.782,612.361Zm-43.987-.628s-.007.007-.011,0l-2.18-2.1s0,0,0-.006a.632.632,0,0,1,.029-.887.7.7,0,0,1,.922-.028s0,0,.007,0l2.18,2.1s0,.007,0,.011a.626.626,0,0,1-.043.866.686.686,0,0,1-.476.189A.677.677,0,0,1-1174.769,611.733Zm-29.7-.781s-.008.006-.012,0l-2.18-2.1s0,0,0-.006a.631.631,0,0,1,.03-.887.693.693,0,0,1,.922-.027s0,0,.007,0l2.18,2.1s0,.006,0,.01a.626.626,0,0,1-.044.866.685.685,0,0,1-.476.189A.678.678,0,0,1-1204.469,610.952Zm14.071-.346a.178.178,0,0,1-.044-.055.037.037,0,0,1-.028-.014l-11.357-10.919a.012.012,0,0,1,0-.011.046.046,0,0,1-.022-.014.637.637,0,0,1,0-.922.7.7,0,0,1,.958,0,.04.04,0,0,1,.014.021c.007,0,.007,0,.011,0l11.356,10.92a.036.036,0,0,1,.014.028.164.164,0,0,1,.058.042.636.636,0,0,1,0,.921.691.691,0,0,1-.479.19A.689.689,0,0,1-1190.4,610.606Zm100.558-.528a.635.635,0,0,1,0-.918c.011-.01.023-.017.034-.027v.981Zm-58.586-.779-4.947-4.757a.637.637,0,0,1,0-.919.7.7,0,0,1,.955,0l4.947,4.757a.636.636,0,0,1,0,.921.692.692,0,0,1-.48.19A.69.69,0,0,1-1148.427,609.3Zm55.355-2.34s-.006.006-.011,0l-2.179-2.1s0,0,0-.006a.631.631,0,0,1,.028-.887.7.7,0,0,1,.922-.027s0,0,.007,0l2.18,2.1s0,.007,0,.011a.625.625,0,0,1-.043.866.685.685,0,0,1-.476.189A.678.678,0,0,1-1093.072,606.958Zm-14.742-.288s-.008.007-.012,0l-2.18-2.1s0,0,0-.006a.631.631,0,0,1,.03-.887.693.693,0,0,1,.922-.028s0,0,.007,0l2.18,2.1s0,.007,0,.011a.626.626,0,0,1-.043.866.688.688,0,0,1-.476.189A.675.675,0,0,1-1107.814,606.67Zm-73.634-1.346a.094.094,0,0,1-.022-.028c-.007,0-.014-.007-.018-.01l-15.2-14.62a.026.026,0,0,1-.011-.017.108.108,0,0,1-.032-.024.633.633,0,0,1,0-.918.7.7,0,0,1,.954,0,.118.118,0,0,1,.026.031c.007,0,.014.008.017.011l15.206,14.62s.011.01.011.017a.1.1,0,0,1,.029.021.641.641,0,0,1,0,.925.688.688,0,0,1-.478.188A.7.7,0,0,1-1181.447,605.325Zm-28.888,0a.108.108,0,0,1-.021-.028c-.008,0-.014-.007-.019-.01l-2.625-2.525v-1.842l3.584,3.446a.034.034,0,0,1,.012.017.093.093,0,0,1,.028.021.641.641,0,0,1,0,.925.69.69,0,0,1-.478.188A.7.7,0,0,1-1210.335,605.325Zm72.105-.11a.079.079,0,0,1-.022-.027.036.036,0,0,1-.018-.011l-15.2-14.62a.046.046,0,0,1-.011-.017.129.129,0,0,1-.032-.024.633.633,0,0,1,0-.919.7.7,0,0,1,.954,0,.116.116,0,0,1,.025.031.028.028,0,0,1,.018.011l15.2,14.62s.011.011.011.017a.1.1,0,0,1,.029.022.64.64,0,0,1,0,.924.684.684,0,0,1-.477.188A.7.7,0,0,1-1138.23,605.215Zm-18.784-4.172a.184.184,0,0,1-.043-.056.037.037,0,0,1-.029-.014l-11.356-10.919s0,0,0-.011a.046.046,0,0,1-.022-.014.636.636,0,0,1,0-.921.7.7,0,0,1,.958,0,.034.034,0,0,1,.014.021c.007,0,.007,0,.011,0l11.357,10.921a.034.034,0,0,1,.014.027.192.192,0,0,1,.058.041.638.638,0,0,1,0,.923.691.691,0,0,1-.479.189A.691.691,0,0,1-1157.014,601.043Zm56.968-.777-4.947-4.756a.635.635,0,0,1,0-.918.7.7,0,0,1,.954,0l4.947,4.757a.635.635,0,0,1,0,.921.691.691,0,0,1-.479.19A.691.691,0,0,1-1100.046,600.266Zm-14.852-.391-11.466-11.026h1.917l10.507,10.1a.636.636,0,0,1,0,.922.691.691,0,0,1-.479.19A.693.693,0,0,1-1114.9,599.874Zm-16.311-1.81s-.007.006-.011,0l-2.181-2.1s0,0,0-.007a.632.632,0,0,1,.03-.887.694.694,0,0,1,.922-.027s0,0,.007,0l2.18,2.1s0,.008,0,.011a.626.626,0,0,1-.043.867.686.686,0,0,1-.475.189A.676.676,0,0,1-1131.208,598.064Zm36.589-6.468a.637.637,0,0,1,0-.922.7.7,0,0,1,.958,0l3.856,3.708v1.843Zm-111.757,3.646-6.624-6.368v-.025h1.89l5.693,5.473a.636.636,0,0,1,0,.921.689.689,0,0,1-.479.19A.689.689,0,0,1-1206.376,595.242Zm27.378-1.465s-.007.007-.011,0l-2.18-2.1s0,0,0-.007a.631.631,0,0,1,.028-.887.7.7,0,0,1,.923-.027s0,0,.006,0l2.181,2.1s0,.007,0,.01a.628.628,0,0,1-.043.867.687.687,0,0,1-.476.189A.676.676,0,0,1-1179,593.777Zm71-1.161a.08.08,0,0,1-.022-.027c-.006,0-.014-.008-.018-.011l-3.879-3.73H-1110l2.92,2.808s.011.011.011.017a.087.087,0,0,1,.029.022.639.639,0,0,1,0,.924.686.686,0,0,1-.477.188A.7.7,0,0,1-1108,592.616Zm-29.759-.837a.177.177,0,0,1-.043-.056.038.038,0,0,1-.029-.013l-2.976-2.861h1.917l2.017,1.94a.033.033,0,0,1,.015.028.166.166,0,0,1,.058.041.638.638,0,0,1,0,.922.691.691,0,0,1-.48.19A.689.689,0,0,1-1137.76,591.779Z" transform="translate(1213.5 -588.348)"/></svg>